<svg width="32" height="32" viewBox="0 0 32 32" fill="none" xmlns="http://www.w3.org/2000/svg">
<rect width="32" height="32" rx="4" fill="white"/>
<path d="M11.1 4.3335H20.9C24.6334 4.3335 27.6667 7.36683 27.6667 11.1002V20.9002C27.6667 22.6948 26.9538 24.4159 25.6848 25.6849C24.4158 26.9539 22.6947 27.6668 20.9 27.6668H11.1C7.36671 27.6668 4.33337 24.6335 4.33337 20.9002V11.1002C4.33337 9.30553 5.04629 7.5844 6.31528 6.31541C7.58428 5.04641 9.30541 4.3335 11.1 4.3335ZM10.8667 6.66683C9.7528 6.66683 8.68451 7.10933 7.89686 7.89698C7.10921 8.68463 6.66671 9.75292 6.66671 10.8668V21.1335C6.66671 23.4552 8.54504 25.3335 10.8667 25.3335H21.1334C22.2473 25.3335 23.3156 24.891 24.1032 24.1033C24.8909 23.3157 25.3334 22.2474 25.3334 21.1335V10.8668C25.3334 8.54516 23.455 6.66683 21.1334 6.66683H10.8667ZM22.125 8.41683C22.5118 8.41683 22.8827 8.57047 23.1562 8.84397C23.4297 9.11746 23.5834 9.48839 23.5834 9.87516C23.5834 10.2619 23.4297 10.6329 23.1562 10.9064C22.8827 11.1799 22.5118 11.3335 22.125 11.3335C21.7383 11.3335 21.3673 11.1799 21.0938 10.9064C20.8204 10.6329 20.6667 10.2619 20.6667 9.87516C20.6667 9.48839 20.8204 9.11746 21.0938 8.84397C21.3673 8.57047 21.7383 8.41683 22.125 8.41683ZM16 10.1668C17.5471 10.1668 19.0309 10.7814 20.1248 11.8754C21.2188 12.9693 21.8334 14.4531 21.8334 16.0002C21.8334 17.5473 21.2188 19.031 20.1248 20.125C19.0309 21.2189 17.5471 21.8335 16 21.8335C14.4529 21.8335 12.9692 21.2189 11.8753 20.125C10.7813 19.031 10.1667 17.5473 10.1667 16.0002C10.1667 14.4531 10.7813 12.9693 11.8753 11.8754C12.9692 10.7814 14.4529 10.1668 16 10.1668ZM16 12.5002C15.0718 12.5002 14.1815 12.8689 13.5252 13.5253C12.8688 14.1817 12.5 15.0719 12.5 16.0002C12.5 16.9284 12.8688 17.8187 13.5252 18.475C14.1815 19.1314 15.0718 19.5002 16 19.5002C16.9283 19.5002 17.8185 19.1314 18.4749 18.475C19.1313 17.8187 19.5 16.9284 19.5 16.0002C19.5 15.0719 19.1313 14.1817 18.4749 13.5253C17.8185 12.8689 16.9283 12.5002 16 12.5002Z" fill="#121212"/>
</svg>
