<svg width="32" height="32" viewBox="0 0 32 32" fill="none" xmlns="http://www.w3.org/2000/svg">
<rect width="32" height="32" rx="4" fill="white"/>
<path d="M10.2292 8.2084C10.2289 8.76093 10.0091 9.29073 9.61824 9.68123C9.22734 10.0717 8.69733 10.291 8.14479 10.2907C7.59226 10.2904 7.06246 10.0707 6.67196 9.67976C6.28145 9.28886 6.06222 8.75885 6.0625 8.20632C6.06278 7.65378 6.28253 7.12399 6.67343 6.73348C7.06433 6.34298 7.59434 6.12375 8.14688 6.12402C8.69941 6.1243 9.2292 6.34406 9.61971 6.73495C10.0102 7.12585 10.2294 7.65586 10.2292 8.2084ZM10.2917 11.8334H6.125V24.8751H10.2917V11.8334ZM16.875 11.8334H12.7292V24.8751H16.8333V18.0313C16.8333 14.2188 21.8021 13.8646 21.8021 18.0313V24.8751H25.9167V16.6146C25.9167 10.1876 18.5625 10.4271 16.8333 13.5834L16.875 11.8334Z" fill="#121212"/>
</svg>
